<svg xmlns="http://www.w3.org/2000/svg" xmlns:xlink="http://www.w3.org/1999/xlink" width="516" height="229.1"><rect width="516" height="229.1" rx="0" ry="0" class="a"/><svg height="217.1" viewBox="0 0 50 21.71" width="500" x="8" xmlns="http://www.w3.org/2000/svg" xmlns:xlink="http://www.w3.org/1999/xlink" y="6"><style>@keyframes f{0%{transform:translateX(0)}.02%{transform:translateX(-50px)}.92%{transform:translateX(-100px)}1.73%{transform:translateX(-150px)}1.95%{transform:translateX(-200px)}2.31%{transform:translateX(-250px)}2.7%{transform:translateX(-300px)}3.08%{transform:translateX(-350px)}3.35%{transform:translateX(-400px)}3.76%{transform:translateX(-450px)}3.77%{transform:translateX(-550px)}10.32%{transform:translateX(-600px)}10.78%{transform:translateX(-650px)}11.08%{transform:translateX(-700px)}11.3%{transform:translateX(-750px)}11.5%{transform:translateX(-800px)}11.99%{transform:translateX(-850px)}12%{transform:translateX(-950px)}13.61%{transform:translateX(-1000px)}14.06%{transform:translateX(-1050px)}14.32%{transform:translateX(-1100px)}14.77%{transform:translateX(-1150px)}16.25%{transform:translateX(-1200px)}16.66%{transform:translateX(-1250px)}16.93%{transform:translateX(-1300px)}17.64%{transform:translateX(-1350px)}17.98%{transform:translateX(-1400px)}18.47%{transform:translateX(-1450px)}18.91%{transform:translateX(-1500px)}19.49%{transform:translateX(-1550px)}19.85%{transform:translateX(-1600px)}21.83%{transform:translateX(-1650px)}21.84%{transform:translateX(-1750px)}28.86%{transform:translateX(-1800px)}29.3%{transform:translateX(-1850px)}29.72%{transform:translateX(-1900px)}29.95%{transform:translateX(-1950px)}30.1%{transform:translateX(-2000px)}30.51%{transform:translateX(-2050px)}30.52%{transform:translateX(-2150px)}32.65%{transform:translateX(-2200px)}33.05%{transform:translateX(-2250px)}33.22%{transform:translateX(-2300px)}33.5%{transform:translateX(-2350px)}34.97%{transform:translateX(-2400px)}35.31%{transform:translateX(-2450px)}35.66%{transform:translateX(-2500px)}36.3%{transform:translateX(-2550px)}36.86%{transform:translateX(-2600px)}37.16%{transform:translateX(-2650px)}37.81%{transform:translateX(-2700px)}38%{transform:translateX(-2750px)}38.48%{transform:translateX(-2800px)}38.77%{transform:translateX(-2850px)}39.1%{transform:translateX(-2900px)}39.63%{transform:translateX(-2950px)}40.15%{transform:translateX(-3000px)}40.83%{transform:translateX(-3050px)}41.06%{transform:translateX(-3100px)}41.6%{transform:translateX(-3150px)}42%{transform:translateX(-3200px)}42.42%{transform:translateX(-3250px)}43.44%{transform:translateX(-3300px)}43.45%{transform:translateX(-3400px)}50.62%{transform:translateX(-3450px)}50.97%{transform:translateX(-3500px)}51.28%{transform:translateX(-3550px)}51.45%{transform:translateX(-3600px)}51.52%{transform:translateX(-3650px)}52.05%{transform:translateX(-3800px)}55.46%{transform:translateX(-3850px)}55.89%{transform:translateX(-3900px)}56.06%{transform:translateX(-3950px)}56.3%{transform:translateX(-4000px)}56.74%{transform:translateX(-4050px)}57.24%{transform:translateX(-4100px)}57.52%{transform:translateX(-4150px)}58.25%{transform:translateX(-4200px)}58.77%{transform:translateX(-4250px)}59.37%{transform:translateX(-4300px)}59.8%{transform:translateX(-4350px)}60.02%{transform:translateX(-4400px)}60.49%{transform:translateX(-4450px)}60.76%{transform:translateX(-4500px)}61.07%{transform:translateX(-4550px)}61.65%{transform:translateX(-4600px)}62.42%{transform:translateX(-4650px)}62.78%{transform:translateX(-4700px)}63.61%{transform:translateX(-4750px)}63.98%{transform:translateX(-4800px)}64.4%{transform:translateX(-4850px)}64.86%{transform:translateX(-4900px)}65.21%{transform:translateX(-4950px)}65.74%{transform:translateX(-5000px)}65.75%{transform:translateX(-5150px)}72.62%{transform:translateX(-5200px)}73%{transform:translateX(-5250px)}73.41%{transform:translateX(-5300px)}73.56%{transform:translateX(-5350px)}73.75%{transform:translateX(-5400px)}74.23%{transform:translateX(-5550px)}75.66%{transform:translateX(-5600px)}76.04%{transform:translateX(-5650px)}76.23%{transform:translateX(-5700px)}76.42%{transform:translateX(-5750px)}77.76%{transform:translateX(-5800px)}78.28%{transform:translateX(-5850px)}79.07%{transform:translateX(-5900px)}79.29%{transform:translateX(-5950px)}80.28%{transform:translateX(-6000px)}81.02%{transform:translateX(-6050px)}81.32%{transform:translateX(-6100px)}81.57%{transform:translateX(-6150px)}82.11%{transform:translateX(-6200px)}82.87%{transform:translateX(-6250px)}83.02%{transform:translateX(-6300px)}83.19%{transform:translateX(-6350px)}83.73%{transform:translateX(-6400px)}84.08%{transform:translateX(-6450px)}84.38%{transform:translateX(-6500px)}85.15%{transform:translateX(-6550px)}85.52%{transform:translateX(-6600px)}85.98%{transform:translateX(-6650px)}86.33%{transform:translateX(-6700px)}86.64%{transform:translateX(-6750px)}87.18%{transform:translateX(-6850px)}87.19%{transform:translateX(-6900px)}to{transform:translateX(-6950px)}}.a{fill:#282d35}.c{fill:#b9c0cb;white-space:pre}</style><g font-family="Monaco,Consolas,Menlo,'Bitstream Vera Sans Mono','Powerline Symbols',monospace" font-size="1.67"><defs><symbol id="1"><text y="1.67" class="c">sh-5.1$</text></symbol><symbol id="2"><text y="1.67" class="c">sh-5.1$</text><text x="8.016" y="1.67" class="c">c</text></symbol><symbol id="3"><text y="1.67" class="c">sh-5.1$</text><text x="8.016" y="1.67" class="c">cat</text></symbol><symbol id="4"><text y="1.67" class="c">sh-5.1$</text><text x="8.016" y="1.67" class="c">cat</text><text x="12.024" y="1.67" class="c">food.csv</text></symbol><symbol id="5"><text y="1.67" class="c">id,name,servings</text></symbol><symbol id="6"><text y="1.67" class="c">1,oatmeal,2</text></symbol><symbol id="7"><text y="1.67" class="c">2,milk,6</text></symbol><symbol id="8"><text y="1.67" class="c">sh-5.1$</text><text x="8.016" y="1.67" class="c">cl</text></symbol><symbol id="9"><text y="1.67" class="c">sh-5.1$</text><text x="8.016" y="1.67" class="c">cle</text></symbol><symbol id="10"><text y="1.67" class="c">sh-5.1$</text><text x="8.016" y="1.67" class="c">clea</text></symbol><symbol id="11"><text y="1.67" class="c">sh-5.1$</text><text x="8.016" y="1.67" class="c">clear</text></symbol><symbol id="12"><text y="1.67" class="c">sh-5.1$</text><text x="8.016" y="1.67" class="c">m</text></symbol><symbol id="13"><text y="1.67" class="c">sh-5.1$</text><text x="8.016" y="1.67" class="c">md</text></symbol><symbol id="14"><text y="1.67" class="c">sh-5.1$</text><text x="8.016" y="1.67" class="c">mdt</text></symbol><symbol id="15"><text y="1.67" class="c">sh-5.1$</text><text x="8.016" y="1.67" class="c">mdt</text><text x="12.024" y="1.67" class="c">m</text></symbol><symbol id="16"><text y="1.67" class="c">sh-5.1$</text><text x="8.016" y="1.67" class="c">mdt</text><text x="12.024" y="1.67" class="c">md</text></symbol><symbol id="17"><text y="1.67" class="c">sh-5.1$</text><text x="8.016" y="1.67" class="c">mdt</text><text x="12.024" y="1.67" class="c">md</text><text x="15.03" y="1.67" class="c">&lt;</text></symbol><symbol id="18"><text y="1.67" class="c">sh-5.1$</text><text x="8.016" y="1.67" class="c">mdt</text><text x="12.024" y="1.67" class="c">md</text><text x="15.03" y="1.67" class="c">&lt;</text><text x="17.034" y="1.67" class="c">food.csv</text></symbol><symbol id="19"><text y="1.67" class="c">|</text><text x="2.004" y="1.67" class="c">id</text><text x="6.012" y="1.67" class="c">|</text><text x="8.016" y="1.67" class="c">name</text><text x="16.032" y="1.67" class="c">|</text><text x="18.036" y="1.67" class="c">servings</text><text x="27.054" y="1.67" class="c">|</text></symbol><symbol id="20"><text y="1.67" class="c">|</text><text x="2.004" y="1.67" class="c">---</text><text x="6.012" y="1.67" class="c">|</text><text x="8.016" y="1.67" class="c">-------</text><text x="16.032" y="1.67" class="c">|</text><text x="18.036" y="1.67" class="c">--------</text><text x="27.054" y="1.67" class="c">|</text></symbol><symbol id="21"><text y="1.67" class="c">|</text><text x="2.004" y="1.67" class="c">1</text><text x="6.012" y="1.67" class="c">|</text><text x="8.016" y="1.67" class="c">oatmeal</text><text x="16.032" y="1.67" class="c">|</text><text x="18.036" y="1.67" class="c">2</text><text x="27.054" y="1.67" class="c">|</text></symbol><symbol id="22"><text y="1.67" class="c">|</text><text x="2.004" y="1.67" class="c">2</text><text x="6.012" y="1.67" class="c">|</text><text x="8.016" y="1.67" class="c">milk</text><text x="16.032" y="1.67" class="c">|</text><text x="18.036" y="1.67" class="c">6</text><text x="27.054" y="1.67" class="c">|</text></symbol><symbol id="23"><text y="1.67" class="c">sh-5.1$</text><text x="8.016" y="1.67" class="c">mdt</text><text x="12.024" y="1.67" class="c">md</text><text x="15.03" y="1.67" class="c">-</text></symbol><symbol id="24"><text y="1.67" class="c">sh-5.1$</text><text x="8.016" y="1.67" class="c">mdt</text><text x="12.024" y="1.67" class="c">md</text><text x="15.03" y="1.67" class="c">--</text></symbol><symbol id="25"><text y="1.67" class="c">sh-5.1$</text><text x="8.016" y="1.67" class="c">mdt</text><text x="12.024" y="1.67" class="c">md</text><text x="15.03" y="1.67" class="c">--a</text></symbol><symbol id="26"><text y="1.67" class="c">sh-5.1$</text><text x="8.016" y="1.67" class="c">mdt</text><text x="12.024" y="1.67" class="c">md</text><text x="15.03" y="1.67" class="c">--al</text></symbol><symbol id="27"><text y="1.67" class="c">sh-5.1$</text><text x="8.016" y="1.67" class="c">mdt</text><text x="12.024" y="1.67" class="c">md</text><text x="15.03" y="1.67" class="c">--ali</text></symbol><symbol id="28"><text y="1.67" class="c">sh-5.1$</text><text x="8.016" y="1.67" class="c">mdt</text><text x="12.024" y="1.67" class="c">md</text><text x="15.03" y="1.67" class="c">--alig</text></symbol><symbol id="29"><text y="1.67" class="c">sh-5.1$</text><text x="8.016" y="1.67" class="c">mdt</text><text x="12.024" y="1.67" class="c">md</text><text x="15.03" y="1.67" class="c">--align</text></symbol><symbol id="30"><text y="1.67" class="c">sh-5.1$</text><text x="8.016" y="1.67" class="c">mdt</text><text x="12.024" y="1.67" class="c">md</text><text x="15.03" y="1.67" class="c">--align</text><text x="23.046" y="1.67" class="c">l</text></symbol><symbol id="31"><text y="1.67" class="c">sh-5.1$</text><text x="8.016" y="1.67" class="c">mdt</text><text x="12.024" y="1.67" class="c">md</text><text x="15.03" y="1.67" class="c">--align</text><text x="23.046" y="1.67" class="c">l</text><text x="25.05" y="1.67" class="c">&lt;</text></symbol><symbol id="32"><text y="1.67" class="c">sh-5.1$</text><text x="8.016" y="1.67" class="c">mdt</text><text x="12.024" y="1.67" class="c">md</text><text x="15.03" y="1.67" class="c">--align</text><text x="23.046" y="1.67" class="c">l</text><text x="25.05" y="1.67" class="c">&lt;</text><text x="27.054" y="1.67" class="c">food.csv</text></symbol><symbol id="33"><text y="1.67" class="c">|</text><text x="2.004" y="1.67" class="c">:--</text><text x="6.012" y="1.67" class="c">|</text><text x="8.016" y="1.67" class="c">:------</text><text x="16.032" y="1.67" class="c">|</text><text x="18.036" y="1.67" class="c">:-------</text><text x="27.054" y="1.67" class="c">|</text></symbol><symbol id="34"><text y="1.67" class="c">sh-5.1$</text><text x="8.016" y="1.67" class="c">mdt</text><text x="12.024" y="1.67" class="c">md</text><text x="15.03" y="1.67" class="c">--align</text><text x="23.046" y="1.67" class="c">cr</text></symbol><symbol id="35"><text y="1.67" class="c">sh-5.1$</text><text x="8.016" y="1.67" class="c">mdt</text><text x="12.024" y="1.67" class="c">md</text><text x="15.03" y="1.67" class="c">--align</text><text x="23.046" y="1.67" class="c">cr</text><text x="26.052" y="1.67" class="c">&lt;</text></symbol><symbol id="36"><text y="1.67" class="c">sh-5.1$</text><text x="8.016" y="1.67" class="c">mdt</text><text x="12.024" y="1.67" class="c">md</text><text x="15.03" y="1.67" class="c">--align</text><text x="23.046" y="1.67" class="c">cr</text><text x="26.052" y="1.67" class="c">&lt;</text><text x="28.056" y="1.67" class="c">food.csv</text></symbol><symbol id="37"><text y="1.67" class="c">|</text><text x="2.004" y="1.67" class="c">:-:</text><text x="6.012" y="1.67" class="c">|</text><text x="8.016" y="1.67" class="c">------:</text><text x="16.032" y="1.67" class="c">|</text><text x="18.036" y="1.67" class="c">--------</text><text x="27.054" y="1.67" class="c">|</text></symbol><symbol id="38"><text y="1.67" class="c">sh-5.1$</text><text x="8.016" y="1.67" class="c">mdt</text><text x="12.024" y="1.67" class="c">--no-header</text></symbol><symbol id="39"><text y="1.67" class="c">sh-5.1$</text><text x="8.016" y="1.67" class="c">mdt</text><text x="12.024" y="1.67" class="c">--no-header</text><text x="24.048" y="1.67" class="c">md</text></symbol><symbol id="40"><text y="1.67" class="c">sh-5.1$</text><text x="8.016" y="1.67" class="c">mdt</text><text x="12.024" y="1.67" class="c">--no-header</text><text x="24.048" y="1.67" class="c">md</text><text x="27.054" y="1.67" class="c">&lt;</text></symbol><symbol id="41"><text y="1.67" class="c">sh-5.1$</text><text x="8.016" y="1.67" class="c">mdt</text><text x="12.024" y="1.67" class="c">--no-header</text><text x="24.048" y="1.67" class="c">md</text><text x="27.054" y="1.67" class="c">&lt;</text><text x="29.058" y="1.67" class="c">food.csv</text></symbol><symbol id="42"><text y="1.67" class="c">|</text><text x="2.004" y="1.67" class="c">id</text><text x="5.01" y="1.67" class="c">|</text><text x="7.014" y="1.67" class="c">name</text><text x="15.03" y="1.67" class="c">|</text><text x="17.034" y="1.67" class="c">servings</text><text x="26.052" y="1.67" class="c">|</text></symbol><symbol id="43"><text y="1.67" class="c">|</text><text x="2.004" y="1.67" class="c">1</text><text x="5.01" y="1.67" class="c">|</text><text x="7.014" y="1.67" class="c">oatmeal</text><text x="15.03" y="1.67" class="c">|</text><text x="17.034" y="1.67" class="c">2</text><text x="26.052" y="1.67" class="c">|</text></symbol><symbol id="44"><text y="1.67" class="c">|</text><text x="2.004" y="1.67" class="c">2</text><text x="5.01" y="1.67" class="c">|</text><text x="7.014" y="1.67" class="c">milk</text><text x="15.03" y="1.67" class="c">|</text><text x="17.034" y="1.67" class="c">6</text><text x="26.052" y="1.67" class="c">|</text></symbol><symbol id="a"><path fill="transparent" d="M0 0h50v11H0z"/></symbol><symbol id="b"><path fill="#6f7683" d="M0 0h1.102v2.171H0z"/></symbol></defs><path class="a" d="M0 0h50v21.71H0z"/><g style="animation-duration:25.100852s;animation-iteration-count:infinite;animation-name:f;animation-timing-function:steps(1,end)"><svg width="7000"><svg><use xlink:href="#a"/><use xlink:href="#b" x="-.004"/></svg><svg x="50"><use xlink:href="#a"/><use xlink:href="#b" x="7.996"/><use xlink:href="#1"/></svg><svg x="100"><use xlink:href="#a"/><use xlink:href="#b" x="8.996"/><use xlink:href="#2"/></svg><svg x="150"><use xlink:href="#a"/><use xlink:href="#b" x="9.996"/><text y="1.67" class="c">sh-5.1$</text><text x="8.016" y="1.67" class="c">ca</text></svg><svg x="200"><use xlink:href="#a"/><use xlink:href="#b" x="10.996"/><use xlink:href="#3"/></svg><svg x="250"><use xlink:href="#a"/><use xlink:href="#b" x="11.996"/><use xlink:href="#3"/></svg><svg x="300"><use xlink:href="#a"/><use xlink:href="#b" x="12.996"/><text y="1.67" class="c">sh-5.1$</text><text x="8.016" y="1.67" class="c">cat</text><text x="12.024" y="1.67" class="c">f</text></svg><svg x="350"><use xlink:href="#a"/><use xlink:href="#b" x="13.996"/><text y="1.67" class="c">sh-5.1$</text><text x="8.016" y="1.67" class="c">cat</text><text x="12.024" y="1.67" class="c">fo</text></svg><svg x="400"><use xlink:href="#a"/><use xlink:href="#b" x="20.996"/><use xlink:href="#4"/></svg><svg x="450"><use xlink:href="#a"/><use xlink:href="#b" x="-.004" y="2.146"/><use xlink:href="#4"/></svg><svg x="500"><use xlink:href="#a"/><use xlink:href="#b" x="-.004" y="8.659"/><use xlink:href="#4"/><use xlink:href="#5" y="2.171"/><use xlink:href="#6" y="4.342"/><use xlink:href="#7" y="6.513"/></svg><svg x="550"><use xlink:href="#a"/><use xlink:href="#b" x="7.996" y="8.659"/><use xlink:href="#4"/><use xlink:href="#5" y="2.171"/><use xlink:href="#6" y="4.342"/><use xlink:href="#7" y="6.513"/><use xlink:href="#1" y="8.684"/></svg><svg x="600"><use xlink:href="#a"/><use xlink:href="#b" x="8.996" y="8.659"/><use xlink:href="#4"/><use xlink:href="#5" y="2.171"/><use xlink:href="#6" y="4.342"/><use xlink:href="#7" y="6.513"/><use xlink:href="#2" y="8.684"/></svg><svg x="650"><use xlink:href="#a"/><use xlink:href="#b" x="9.996" y="8.659"/><use xlink:href="#4"/><use xlink:href="#5" y="2.171"/><use xlink:href="#6" y="4.342"/><use xlink:href="#7" y="6.513"/><use xlink:href="#8" y="8.684"/></svg><svg x="700"><use xlink:href="#a"/><use xlink:href="#b" x="10.996" y="8.659"/><use xlink:href="#4"/><use xlink:href="#5" y="2.171"/><use xlink:href="#6" y="4.342"/><use xlink:href="#7" y="6.513"/><use xlink:href="#9" y="8.684"/></svg><svg x="750"><use xlink:href="#a"/><use xlink:href="#b" x="11.996" y="8.659"/><use xlink:href="#4"/><use xlink:href="#5" y="2.171"/><use xlink:href="#6" y="4.342"/><use xlink:href="#7" y="6.513"/><use xlink:href="#10" y="8.684"/></svg><svg x="800"><use xlink:href="#a"/><use xlink:href="#b" x="12.996" y="8.659"/><use xlink:href="#4"/><use xlink:href="#5" y="2.171"/><use xlink:href="#6" y="4.342"/><use xlink:href="#7" y="6.513"/><use xlink:href="#11" y="8.684"/></svg><svg x="850"><use xlink:href="#a"/><use xlink:href="#b" x="-.004" y="10.83"/><use xlink:href="#4"/><use xlink:href="#5" y="2.171"/><use xlink:href="#6" y="4.342"/><use xlink:href="#7" y="6.513"/><use xlink:href="#11" y="8.684"/></svg><svg x="900"><use xlink:href="#a"/><use xlink:href="#b" x="-.004"/></svg><svg x="950"><use xlink:href="#a"/><use xlink:href="#b" x="7.996"/><use xlink:href="#1"/></svg><svg x="1000"><use xlink:href="#a"/><use xlink:href="#b" x="8.996"/><use xlink:href="#12"/></svg><svg x="1050"><use xlink:href="#a"/><use xlink:href="#b" x="9.996"/><use xlink:href="#13"/></svg><svg x="1100"><use xlink:href="#a"/><use xlink:href="#b" x="10.996"/><use xlink:href="#14"/></svg><svg x="1150"><use xlink:href="#a"/><use xlink:href="#b" x="11.996"/><use xlink:href="#14"/></svg><svg x="1200"><use xlink:href="#a"/><use xlink:href="#b" x="12.996"/><use xlink:href="#15"/></svg><svg x="1250"><use xlink:href="#a"/><use xlink:href="#b" x="13.996"/><use xlink:href="#16"/></svg><svg x="1300"><use xlink:href="#a"/><use xlink:href="#b" x="14.996"/><use xlink:href="#16"/></svg><svg x="1350"><use xlink:href="#a"/><use xlink:href="#b" x="15.996"/><use xlink:href="#17"/></svg><svg x="1400"><use xlink:href="#a"/><use xlink:href="#b" x="16.996"/><use xlink:href="#17"/></svg><svg x="1450"><use xlink:href="#a"/><use xlink:href="#b" x="17.996"/><text y="1.67" class="c">sh-5.1$</text><text x="8.016" y="1.67" class="c">mdt</text><text x="12.024" y="1.67" class="c">md</text><text x="15.03" y="1.67" class="c">&lt;</text><text x="17.034" y="1.67" class="c">f</text></svg><svg x="1500"><use xlink:href="#a"/><use xlink:href="#b" x="18.996"/><text y="1.67" class="c">sh-5.1$</text><text x="8.016" y="1.67" class="c">mdt</text><text x="12.024" y="1.67" class="c">md</text><text x="15.03" y="1.67" class="c">&lt;</text><text x="17.034" y="1.67" class="c">fo</text></svg><svg x="1550"><use xlink:href="#a"/><use xlink:href="#b" x="19.996"/><text y="1.67" class="c">sh-5.1$</text><text x="8.016" y="1.67" class="c">mdt</text><text x="12.024" y="1.67" class="c">md</text><text x="15.03" y="1.67" class="c">&lt;</text><text x="17.034" y="1.67" class="c">foo</text></svg><svg x="1600"><use xlink:href="#a"/><use xlink:href="#b" x="25.996"/><use xlink:href="#18"/></svg><svg x="1650"><use xlink:href="#a"/><use xlink:href="#b" x="-.004" y="2.146"/><use xlink:href="#18"/></svg><svg x="1700"><use xlink:href="#a"/><use xlink:href="#b" x="-.004" y="10.83"/><use xlink:href="#18"/><use xlink:href="#19" y="2.171"/><use xlink:href="#20" y="4.342"/><use xlink:href="#21" y="6.513"/><use xlink:href="#22" y="8.684"/></svg><svg x="1750"><use xlink:href="#a"/><use xlink:href="#b" x="7.996" y="10.83"/><use xlink:href="#18"/><use xlink:href="#19" y="2.171"/><use xlink:href="#20" y="4.342"/><use xlink:href="#21" y="6.513"/><use xlink:href="#22" y="8.684"/><use xlink:href="#1" y="10.855"/></svg><svg x="1800"><use xlink:href="#a"/><use xlink:href="#b" x="8.996" y="10.83"/><use xlink:href="#18"/><use xlink:href="#19" y="2.171"/><use xlink:href="#20" y="4.342"/><use xlink:href="#21" y="6.513"/><use xlink:href="#22" y="8.684"/><use xlink:href="#2" y="10.855"/></svg><svg x="1850"><use xlink:href="#a"/><use xlink:href="#b" x="9.996" y="10.83"/><use xlink:href="#18"/><use xlink:href="#19" y="2.171"/><use xlink:href="#20" y="4.342"/><use xlink:href="#21" y="6.513"/><use xlink:href="#22" y="8.684"/><use xlink:href="#8" y="10.855"/></svg><svg x="1900"><use xlink:href="#a"/><use xlink:href="#b" x="10.996" y="10.83"/><use xlink:href="#18"/><use xlink:href="#19" y="2.171"/><use xlink:href="#20" y="4.342"/><use xlink:href="#21" y="6.513"/><use xlink:href="#22" y="8.684"/><use xlink:href="#9" y="10.855"/></svg><svg x="1950"><use xlink:href="#a"/><use xlink:href="#b" x="11.996" y="10.83"/><use xlink:href="#18"/><use xlink:href="#19" y="2.171"/><use xlink:href="#20" y="4.342"/><use xlink:href="#21" y="6.513"/><use xlink:href="#22" y="8.684"/><use xlink:href="#10" y="10.855"/></svg><svg x="2000"><use xlink:href="#a"/><use xlink:href="#b" x="12.996" y="10.83"/><use xlink:href="#18"/><use xlink:href="#19" y="2.171"/><use xlink:href="#20" y="4.342"/><use xlink:href="#21" y="6.513"/><use xlink:href="#22" y="8.684"/><use xlink:href="#11" y="10.855"/></svg><svg x="2050"><use xlink:href="#a"/><use xlink:href="#b" x="-.004" y="13.001"/><use xlink:href="#18"/><use xlink:href="#19" y="2.171"/><use xlink:href="#20" y="4.342"/><use xlink:href="#21" y="6.513"/><use xlink:href="#22" y="8.684"/><use xlink:href="#11" y="10.855"/></svg><svg x="2100"><use xlink:href="#a"/><use xlink:href="#b" x="-.004"/></svg><svg x="2150"><use xlink:href="#a"/><use xlink:href="#b" x="7.996"/><use xlink:href="#1"/></svg><svg x="2200"><use xlink:href="#a"/><use xlink:href="#b" x="8.996"/><use xlink:href="#12"/></svg><svg x="2250"><use xlink:href="#a"/><use xlink:href="#b" x="9.996"/><use xlink:href="#13"/></svg><svg x="2300"><use xlink:href="#a"/><use xlink:href="#b" x="10.996"/><use xlink:href="#14"/></svg><svg x="2350"><use xlink:href="#a"/><use xlink:href="#b" x="11.996"/><use xlink:href="#14"/></svg><svg x="2400"><use xlink:href="#a"/><use xlink:href="#b" x="12.996"/><use xlink:href="#15"/></svg><svg x="2450"><use xlink:href="#a"/><use xlink:href="#b" x="13.996"/><use xlink:href="#16"/></svg><svg x="2500"><use xlink:href="#a"/><use xlink:href="#b" x="14.996"/><use xlink:href="#16"/></svg><svg x="2550"><use xlink:href="#a"/><use xlink:href="#b" x="15.996"/><use xlink:href="#23"/></svg><svg x="2600"><use xlink:href="#a"/><use xlink:href="#b" x="16.996"/><use xlink:href="#24"/></svg><svg x="2650"><use xlink:href="#a"/><use xlink:href="#b" x="17.996"/><use xlink:href="#25"/></svg><svg x="2700"><use xlink:href="#a"/><use xlink:href="#b" x="18.996"/><use xlink:href="#26"/></svg><svg x="2750"><use xlink:href="#a"/><use xlink:href="#b" x="19.996"/><use xlink:href="#27"/></svg><svg x="2800"><use xlink:href="#a"/><use xlink:href="#b" x="20.996"/><use xlink:href="#28"/></svg><svg x="2850"><use xlink:href="#a"/><use xlink:href="#b" x="21.996"/><use xlink:href="#29"/></svg><svg x="2900"><use xlink:href="#a"/><use xlink:href="#b" x="22.996"/><use xlink:href="#29"/></svg><svg x="2950"><use xlink:href="#a"/><use xlink:href="#b" x="23.996"/><use xlink:href="#30"/></svg><svg x="3000"><use xlink:href="#a"/><use xlink:href="#b" x="24.996"/><use xlink:href="#30"/></svg><svg x="3050"><use xlink:href="#a"/><use xlink:href="#b" x="25.996"/><use xlink:href="#31"/></svg><svg x="3100"><use xlink:href="#a"/><use xlink:href="#b" x="26.996"/><use xlink:href="#31"/></svg><svg x="3150"><use xlink:href="#a"/><use xlink:href="#b" x="27.996"/><text y="1.67" class="c">sh-5.1$</text><text x="8.016" y="1.67" class="c">mdt</text><text x="12.024" y="1.67" class="c">md</text><text x="15.03" y="1.67" class="c">--align</text><text x="23.046" y="1.67" class="c">l</text><text x="25.05" y="1.67" class="c">&lt;</text><text x="27.054" y="1.67" class="c">f</text></svg><svg x="3200"><use xlink:href="#a"/><use xlink:href="#b" x="28.996"/><text y="1.67" class="c">sh-5.1$</text><text x="8.016" y="1.67" class="c">mdt</text><text x="12.024" y="1.67" class="c">md</text><text x="15.03" y="1.67" class="c">--align</text><text x="23.046" y="1.67" class="c">l</text><text x="25.05" y="1.67" class="c">&lt;</text><text x="27.054" y="1.67" class="c">fo</text></svg><svg x="3250"><use xlink:href="#a"/><use xlink:href="#b" x="35.996"/><use xlink:href="#32"/></svg><svg x="3300"><use xlink:href="#a"/><use xlink:href="#b" x="-.004" y="2.146"/><use xlink:href="#32"/></svg><svg x="3350"><use xlink:href="#a"/><use xlink:href="#b" x="-.004" y="10.83"/><use xlink:href="#32"/><use xlink:href="#19" y="2.171"/><use xlink:href="#33" y="4.342"/><use xlink:href="#21" y="6.513"/><use xlink:href="#22" y="8.684"/></svg><svg x="3400"><use xlink:href="#a"/><use xlink:href="#b" x="7.996" y="10.83"/><use xlink:href="#32"/><use xlink:href="#19" y="2.171"/><use xlink:href="#33" y="4.342"/><use xlink:href="#21" y="6.513"/><use xlink:href="#22" y="8.684"/><use xlink:href="#1" y="10.855"/></svg><svg x="3450"><use xlink:href="#a"/><use xlink:href="#b" x="8.996" y="10.83"/><use xlink:href="#32"/><use xlink:href="#19" y="2.171"/><use xlink:href="#33" y="4.342"/><use xlink:href="#21" y="6.513"/><use xlink:href="#22" y="8.684"/><use xlink:href="#2" y="10.855"/></svg><svg x="3500"><use xlink:href="#a"/><use xlink:href="#b" x="9.996" y="10.83"/><use xlink:href="#32"/><use xlink:href="#19" y="2.171"/><use xlink:href="#33" y="4.342"/><use xlink:href="#21" y="6.513"/><use xlink:href="#22" y="8.684"/><use xlink:href="#8" y="10.855"/></svg><svg x="3550"><use xlink:href="#a"/><use xlink:href="#b" x="10.996" y="10.83"/><use xlink:href="#32"/><use xlink:href="#19" y="2.171"/><use xlink:href="#33" y="4.342"/><use xlink:href="#21" y="6.513"/><use xlink:href="#22" y="8.684"/><use xlink:href="#9" y="10.855"/></svg><svg x="3600"><use xlink:href="#a"/><use xlink:href="#b" x="11.996" y="10.83"/><use xlink:href="#32"/><use xlink:href="#19" y="2.171"/><use xlink:href="#33" y="4.342"/><use xlink:href="#21" y="6.513"/><use xlink:href="#22" y="8.684"/><use xlink:href="#10" y="10.855"/></svg><svg x="3650"><use xlink:href="#a"/><use xlink:href="#b" x="12.996" y="10.83"/><use xlink:href="#32"/><use xlink:href="#19" y="2.171"/><use xlink:href="#33" y="4.342"/><use xlink:href="#21" y="6.513"/><use xlink:href="#22" y="8.684"/><use xlink:href="#11" y="10.855"/></svg><svg x="3700"><use xlink:href="#a"/><use xlink:href="#b" x="-.004" y="13.001"/><use xlink:href="#32"/><use xlink:href="#19" y="2.171"/><use xlink:href="#33" y="4.342"/><use xlink:href="#21" y="6.513"/><use xlink:href="#22" y="8.684"/><use xlink:href="#11" y="10.855"/></svg><svg x="3750"><use xlink:href="#a"/><use xlink:href="#b" x="-.004"/></svg><svg x="3800"><use xlink:href="#a"/><use xlink:href="#b" x="7.996"/><use xlink:href="#1"/></svg><svg x="3850"><use xlink:href="#a"/><use xlink:href="#b" x="8.996"/><use xlink:href="#12"/></svg><svg x="3900"><use xlink:href="#a"/><use xlink:href="#b" x="9.996"/><use xlink:href="#13"/></svg><svg x="3950"><use xlink:href="#a"/><use xlink:href="#b" x="10.996"/><use xlink:href="#14"/></svg><svg x="4000"><use xlink:href="#a"/><use xlink:href="#b" x="11.996"/><use xlink:href="#14"/></svg><svg x="4050"><use xlink:href="#a"/><use xlink:href="#b" x="12.996"/><use xlink:href="#15"/></svg><svg x="4100"><use xlink:href="#a"/><use xlink:href="#b" x="13.996"/><use xlink:href="#16"/></svg><svg x="4150"><use xlink:href="#a"/><use xlink:href="#b" x="14.996"/><use xlink:href="#16"/></svg><svg x="4200"><use xlink:href="#a"/><use xlink:href="#b" x="15.996"/><use xlink:href="#23"/></svg><svg x="4250"><use xlink:href="#a"/><use xlink:href="#b" x="16.996"/><use xlink:href="#24"/></svg><svg x="4300"><use xlink:href="#a"/><use xlink:href="#b" x="17.996"/><use xlink:href="#25"/></svg><svg x="4350"><use xlink:href="#a"/><use xlink:href="#b" x="18.996"/><use xlink:href="#26"/></svg><svg x="4400"><use xlink:href="#a"/><use xlink:href="#b" x="19.996"/><use xlink:href="#27"/></svg><svg x="4450"><use xlink:href="#a"/><use xlink:href="#b" x="20.996"/><use xlink:href="#28"/></svg><svg x="4500"><use xlink:href="#a"/><use xlink:href="#b" x="21.996"/><use xlink:href="#29"/></svg><svg x="4550"><use xlink:href="#a"/><use xlink:href="#b" x="22.996"/><use xlink:href="#29"/></svg><svg x="4600"><use xlink:href="#a"/><use xlink:href="#b" x="23.996"/><text y="1.67" class="c">sh-5.1$</text><text x="8.016" y="1.67" class="c">mdt</text><text x="12.024" y="1.67" class="c">md</text><text x="15.03" y="1.67" class="c">--align</text><text x="23.046" y="1.67" class="c">c</text></svg><svg x="4650"><use xlink:href="#a"/><use xlink:href="#b" x="24.996"/><use xlink:href="#34"/></svg><svg x="4700"><use xlink:href="#a"/><use xlink:href="#b" x="25.996"/><use xlink:href="#34"/></svg><svg x="4750"><use xlink:href="#a"/><use xlink:href="#b" x="26.996"/><use xlink:href="#35"/></svg><svg x="4800"><use xlink:href="#a"/><use xlink:href="#b" x="27.996"/><use xlink:href="#35"/></svg><svg x="4850"><use xlink:href="#a"/><use xlink:href="#b" x="28.996"/><text y="1.67" class="c">sh-5.1$</text><text x="8.016" y="1.67" class="c">mdt</text><text x="12.024" y="1.67" class="c">md</text><text x="15.03" y="1.67" class="c">--align</text><text x="23.046" y="1.67" class="c">cr</text><text x="26.052" y="1.67" class="c">&lt;</text><text x="28.056" y="1.67" class="c">f</text></svg><svg x="4900"><use xlink:href="#a"/><use xlink:href="#b" x="29.996"/><text y="1.67" class="c">sh-5.1$</text><text x="8.016" y="1.67" class="c">mdt</text><text x="12.024" y="1.67" class="c">md</text><text x="15.03" y="1.67" class="c">--align</text><text x="23.046" y="1.67" class="c">cr</text><text x="26.052" y="1.67" class="c">&lt;</text><text x="28.056" y="1.67" class="c">fo</text></svg><svg x="4950"><use xlink:href="#a"/><use xlink:href="#b" x="36.996"/><use xlink:href="#36"/></svg><svg x="5000"><use xlink:href="#a"/><use xlink:href="#b" x="-.004" y="2.146"/><use xlink:href="#36"/></svg><svg x="5050"><use xlink:href="#a"/><use xlink:href="#b" x="-.004" y="10.83"/><use xlink:href="#36"/><use xlink:href="#19" y="2.171"/><use xlink:href="#37" y="4.342"/><use xlink:href="#21" y="6.513"/><use xlink:href="#22" y="8.684"/></svg><svg x="5100"><use xlink:href="#a"/><use xlink:href="#b" x="-.004" y="10.83"/><use xlink:href="#36"/><use xlink:href="#19" y="2.171"/><use xlink:href="#37" y="4.342"/><use xlink:href="#21" y="6.513"/><use xlink:href="#22" y="8.684"/></svg><svg x="5150"><use xlink:href="#a"/><use xlink:href="#b" x="7.996" y="10.83"/><use xlink:href="#36"/><use xlink:href="#19" y="2.171"/><use xlink:href="#37" y="4.342"/><use xlink:href="#21" y="6.513"/><use xlink:href="#22" y="8.684"/><use xlink:href="#1" y="10.855"/></svg><svg x="5200"><use xlink:href="#a"/><use xlink:href="#b" x="8.996" y="10.83"/><use xlink:href="#36"/><use xlink:href="#19" y="2.171"/><use xlink:href="#37" y="4.342"/><use xlink:href="#21" y="6.513"/><use xlink:href="#22" y="8.684"/><use xlink:href="#2" y="10.855"/></svg><svg x="5250"><use xlink:href="#a"/><use xlink:href="#b" x="9.996" y="10.83"/><use xlink:href="#36"/><use xlink:href="#19" y="2.171"/><use xlink:href="#37" y="4.342"/><use xlink:href="#21" y="6.513"/><use xlink:href="#22" y="8.684"/><use xlink:href="#8" y="10.855"/></svg><svg x="5300"><use xlink:href="#a"/><use xlink:href="#b" x="10.996" y="10.83"/><use xlink:href="#36"/><use xlink:href="#19" y="2.171"/><use xlink:href="#37" y="4.342"/><use xlink:href="#21" y="6.513"/><use xlink:href="#22" y="8.684"/><use xlink:href="#9" y="10.855"/></svg><svg x="5350"><use xlink:href="#a"/><use xlink:href="#b" x="11.996" y="10.83"/><use xlink:href="#36"/><use xlink:href="#19" y="2.171"/><use xlink:href="#37" y="4.342"/><use xlink:href="#21" y="6.513"/><use xlink:href="#22" y="8.684"/><use xlink:href="#10" y="10.855"/></svg><svg x="5400"><use xlink:href="#a"/><use xlink:href="#b" x="12.996" y="10.83"/><use xlink:href="#36"/><use xlink:href="#19" y="2.171"/><use xlink:href="#37" y="4.342"/><use xlink:href="#21" y="6.513"/><use xlink:href="#22" y="8.684"/><use xlink:href="#11" y="10.855"/></svg><svg x="5450"><use xlink:href="#a"/><use xlink:href="#b" x="-.004" y="13.001"/><use xlink:href="#36"/><use xlink:href="#19" y="2.171"/><use xlink:href="#37" y="4.342"/><use xlink:href="#21" y="6.513"/><use xlink:href="#22" y="8.684"/><use xlink:href="#11" y="10.855"/></svg><svg x="5500"><use xlink:href="#a"/><use xlink:href="#b" x="-.004"/></svg><svg x="5550"><use xlink:href="#a"/><use xlink:href="#b" x="7.996"/><use xlink:href="#1"/></svg><svg x="5600"><use xlink:href="#a"/><use xlink:href="#b" x="8.996"/><use xlink:href="#12"/></svg><svg x="5650"><use xlink:href="#a"/><use xlink:href="#b" x="9.996"/><use xlink:href="#13"/></svg><svg x="5700"><use xlink:href="#a"/><use xlink:href="#b" x="10.996"/><use xlink:href="#14"/></svg><svg x="5750"><use xlink:href="#a"/><use xlink:href="#b" x="11.996"/><use xlink:href="#14"/></svg><svg x="5800"><use xlink:href="#a"/><use xlink:href="#b" x="12.996"/><text y="1.67" class="c">sh-5.1$</text><text x="8.016" y="1.67" class="c">mdt</text><text x="12.024" y="1.67" class="c">-</text></svg><svg x="5850"><use xlink:href="#a"/><use xlink:href="#b" x="13.996"/><text y="1.67" class="c">sh-5.1$</text><text x="8.016" y="1.67" class="c">mdt</text><text x="12.024" y="1.67" class="c">--</text></svg><svg x="5900"><use xlink:href="#a"/><use xlink:href="#b" x="14.996"/><text y="1.67" class="c">sh-5.1$</text><text x="8.016" y="1.67" class="c">mdt</text><text x="12.024" y="1.67" class="c">--n</text></svg><svg x="5950"><use xlink:href="#a"/><use xlink:href="#b" x="15.996"/><text y="1.67" class="c">sh-5.1$</text><text x="8.016" y="1.67" class="c">mdt</text><text x="12.024" y="1.67" class="c">--no</text></svg><svg x="6000"><use xlink:href="#a"/><use xlink:href="#b" x="16.996"/><text y="1.67" class="c">sh-5.1$</text><text x="8.016" y="1.67" class="c">mdt</text><text x="12.024" y="1.67" class="c">--no-</text></svg><svg x="6050"><use xlink:href="#a"/><use xlink:href="#b" x="17.996"/><text y="1.67" class="c">sh-5.1$</text><text x="8.016" y="1.67" class="c">mdt</text><text x="12.024" y="1.67" class="c">--no-h</text></svg><svg x="6100"><use xlink:href="#a"/><use xlink:href="#b" x="18.996"/><text y="1.67" class="c">sh-5.1$</text><text x="8.016" y="1.67" class="c">mdt</text><text x="12.024" y="1.67" class="c">--no-he</text></svg><svg x="6150"><use xlink:href="#a"/><use xlink:href="#b" x="19.996"/><text y="1.67" class="c">sh-5.1$</text><text x="8.016" y="1.67" class="c">mdt</text><text x="12.024" y="1.67" class="c">--no-hea</text></svg><svg x="6200"><use xlink:href="#a"/><use xlink:href="#b" x="20.996"/><text y="1.67" class="c">sh-5.1$</text><text x="8.016" y="1.67" class="c">mdt</text><text x="12.024" y="1.67" class="c">--no-head</text></svg><svg x="6250"><use xlink:href="#a"/><use xlink:href="#b" x="21.996"/><text y="1.67" class="c">sh-5.1$</text><text x="8.016" y="1.67" class="c">mdt</text><text x="12.024" y="1.67" class="c">--no-heade</text></svg><svg x="6300"><use xlink:href="#a"/><use xlink:href="#b" x="22.996"/><use xlink:href="#38"/></svg><svg x="6350"><use xlink:href="#a"/><use xlink:href="#b" x="23.996"/><use xlink:href="#38"/></svg><svg x="6400"><use xlink:href="#a"/><use xlink:href="#b" x="24.996"/><text y="1.67" class="c">sh-5.1$</text><text x="8.016" y="1.67" class="c">mdt</text><text x="12.024" y="1.67" class="c">--no-header</text><text x="24.048" y="1.67" class="c">m</text></svg><svg x="6450"><use xlink:href="#a"/><use xlink:href="#b" x="25.996"/><use xlink:href="#39"/></svg><svg x="6500"><use xlink:href="#a"/><use xlink:href="#b" x="26.996"/><use xlink:href="#39"/></svg><svg x="6550"><use xlink:href="#a"/><use xlink:href="#b" x="27.996"/><use xlink:href="#40"/></svg><svg x="6600"><use xlink:href="#a"/><use xlink:href="#b" x="28.996"/><use xlink:href="#40"/></svg><svg x="6650"><use xlink:href="#a"/><use xlink:href="#b" x="29.996"/><text y="1.67" class="c">sh-5.1$</text><text x="8.016" y="1.67" class="c">mdt</text><text x="12.024" y="1.67" class="c">--no-header</text><text x="24.048" y="1.67" class="c">md</text><text x="27.054" y="1.67" class="c">&lt;</text><text x="29.058" y="1.67" class="c">f</text></svg><svg x="6700"><use xlink:href="#a"/><use xlink:href="#b" x="30.996"/><text y="1.67" class="c">sh-5.1$</text><text x="8.016" y="1.67" class="c">mdt</text><text x="12.024" y="1.67" class="c">--no-header</text><text x="24.048" y="1.67" class="c">md</text><text x="27.054" y="1.67" class="c">&lt;</text><text x="29.058" y="1.67" class="c">fo</text></svg><svg x="6750"><use xlink:href="#a"/><use xlink:href="#b" x="37.996"/><use xlink:href="#41"/></svg><svg x="6800"><use xlink:href="#a"/><use xlink:href="#b" x="-.004" y="2.146"/><use xlink:href="#41"/></svg><svg x="6850"><use xlink:href="#a"/><use xlink:href="#b" x="-.004" y="8.659"/><use xlink:href="#41"/><use xlink:href="#42" y="2.171"/><use xlink:href="#43" y="4.342"/><use xlink:href="#44" y="6.513"/></svg><svg x="6900"><use xlink:href="#a"/><use xlink:href="#b" x="7.996" y="8.659"/><use xlink:href="#41"/><use xlink:href="#42" y="2.171"/><use xlink:href="#43" y="4.342"/><use xlink:href="#44" y="6.513"/><use xlink:href="#1" y="8.684"/></svg><svg x="6950"><use xlink:href="#a"/><use xlink:href="#b" x="-.004" y="13.001"/><use xlink:href="#41"/><use xlink:href="#42" y="2.171"/><use xlink:href="#43" y="4.342"/><use xlink:href="#44" y="6.513"/><use xlink:href="#1" y="8.684"/><text y="12.525" class="c">exit</text></svg></svg></g></g></svg></svg>