<svg xmlns="http://www.w3.org/2000/svg" xmlns:xlink="http://www.w3.org/1999/xlink" width="516" height="229.1"><rect width="516" height="229.1" rx="0" ry="0" class="a"/><svg height="217.1" viewBox="0 0 50 21.71" width="500" x="8" xmlns="http://www.w3.org/2000/svg" xmlns:xlink="http://www.w3.org/1999/xlink" y="6"><style>@keyframes f{0%{transform:translateX(-50px)}1.6%{transform:translateX(-100px)}3%{transform:translateX(-150px)}3.3%{transform:translateX(-200px)}4.1%{transform:translateX(-250px)}4.6%{transform:translateX(-300px)}5.5%{transform:translateX(-350px)}5.9%{transform:translateX(-400px)}6.7%{transform:translateX(-600px)}16.8%{transform:translateX(-650px)}17.5%{transform:translateX(-700px)}18.2%{transform:translateX(-750px)}18.6%{transform:translateX(-800px)}19%{transform:translateX(-850px)}21.9%{transform:translateX(-1000px)}26.2%{transform:translateX(-1050px)}26.9%{transform:translateX(-1100px)}27.2%{transform:translateX(-1150px)}27.7%{transform:translateX(-1200px)}29%{transform:translateX(-1250px)}29.9%{transform:translateX(-1300px)}30.5%{transform:translateX(-1350px)}31.1%{transform:translateX(-1400px)}32.2%{transform:translateX(-1450px)}33.3%{transform:translateX(-1500px)}34.4%{transform:translateX(-1550px)}35.2%{transform:translateX(-1600px)}35.9%{transform:translateX(-1650px)}37%{transform:translateX(-1800px)}49.4%{transform:translateX(-1850px)}50.3%{transform:translateX(-1900px)}51%{transform:translateX(-1950px)}51.5%{transform:translateX(-2000px)}51.7%{transform:translateX(-2050px)}52.5%{transform:translateX(-2250px)}54.9%{transform:translateX(-2300px)}55.6%{transform:translateX(-2350px)}55.9%{transform:translateX(-2400px)}56.6%{transform:translateX(-2450px)}58.1%{transform:translateX(-2500px)}58.7%{transform:translateX(-2550px)}61.4%{transform:translateX(-2600px)}61.7%{transform:translateX(-2650px)}63.8%{transform:translateX(-2700px)}65.7%{transform:translateX(-2750px)}66.3%{transform:translateX(-2800px)}67%{transform:translateX(-2850px)}67.6%{transform:translateX(-2900px)}69.1%{transform:translateX(-2950px)}69.4%{transform:translateX(-3000px)}70.1%{transform:translateX(-3050px)}71.5%{transform:translateX(-3100px)}72.3%{transform:translateX(-3150px)}73%{transform:translateX(-3200px)}73.4%{transform:translateX(-3250px)}74.6%{transform:translateX(-3300px)}75.5%{transform:translateX(-3350px)}76.5%{transform:translateX(-3400px)}77.3%{transform:translateX(-3450px)}77.9%{transform:translateX(-3500px)}79.5%{transform:translateX(-3550px)}79.6%{transform:translateX(-3650px)}to{transform:translateX(-3700px)}}.a{fill:#282d35}.c{fill:#b9c0cb;white-space:pre}</style><g font-family="Monaco,Consolas,Menlo,'Bitstream Vera Sans Mono','Powerline Symbols',monospace" font-size="1.67"><defs><symbol id="1"><text y="1.67" class="c">sh-5.1$</text></symbol><symbol id="2"><text y="1.67" class="c">sh-5.1$</text><text x="8.016" y="1.67" class="c">c</text></symbol><symbol id="3"><text y="1.67" class="c">sh-5.1$</text><text x="8.016" y="1.67" class="c">cat</text></symbol><symbol id="4"><text y="1.67" class="c">sh-5.1$</text><text x="8.016" y="1.67" class="c">cat</text><text x="12.024" y="1.67" class="c">food.md</text></symbol><symbol id="5"><text y="1.67" class="c">|</text><text x="2.004" y="1.67" class="c">id</text><text x="6.012" y="1.67" class="c">|</text><text x="8.016" y="1.67" class="c">name</text><text x="16.032" y="1.67" class="c">|</text><text x="18.036" y="1.67" class="c">servings</text><text x="27.054" y="1.67" class="c">|</text></symbol><symbol id="6"><text y="1.67" class="c">|</text><text x="2.004" y="1.67" class="c">---</text><text x="6.012" y="1.67" class="c">|</text><text x="8.016" y="1.67" class="c">-------</text><text x="16.032" y="1.67" class="c">|</text><text x="18.036" y="1.67" class="c">--------</text><text x="27.054" y="1.67" class="c">|</text></symbol><symbol id="7"><text y="1.67" class="c">|</text><text x="2.004" y="1.67" class="c">1</text><text x="6.012" y="1.67" class="c">|</text><text x="8.016" y="1.67" class="c">oatmeal</text><text x="16.032" y="1.67" class="c">|</text><text x="18.036" y="1.67" class="c">2</text><text x="27.054" y="1.67" class="c">|</text></symbol><symbol id="8"><text y="1.67" class="c">|</text><text x="2.004" y="1.67" class="c">2</text><text x="6.012" y="1.67" class="c">|</text><text x="8.016" y="1.67" class="c">milk</text><text x="16.032" y="1.67" class="c">|</text><text x="18.036" y="1.67" class="c">6</text><text x="27.054" y="1.67" class="c">|</text></symbol><symbol id="9"><text y="1.67" class="c">sh-5.1$</text><text x="8.016" y="1.67" class="c">cl</text></symbol><symbol id="10"><text y="1.67" class="c">sh-5.1$</text><text x="8.016" y="1.67" class="c">cle</text></symbol><symbol id="11"><text y="1.67" class="c">sh-5.1$</text><text x="8.016" y="1.67" class="c">clea</text></symbol><symbol id="12"><text y="1.67" class="c">sh-5.1$</text><text x="8.016" y="1.67" class="c">clear</text></symbol><symbol id="13"><text y="1.67" class="c">sh-5.1$</text><text x="8.016" y="1.67" class="c">m</text></symbol><symbol id="14"><text y="1.67" class="c">sh-5.1$</text><text x="8.016" y="1.67" class="c">md</text></symbol><symbol id="15"><text y="1.67" class="c">sh-5.1$</text><text x="8.016" y="1.67" class="c">mdt</text></symbol><symbol id="16"><text y="1.67" class="c">sh-5.1$</text><text x="8.016" y="1.67" class="c">mdt</text><text x="12.024" y="1.67" class="c">csv</text></symbol><symbol id="17"><text y="1.67" class="c">sh-5.1$</text><text x="8.016" y="1.67" class="c">mdt</text><text x="12.024" y="1.67" class="c">csv</text><text x="16.032" y="1.67" class="c">&lt;</text></symbol><symbol id="18"><text y="1.67" class="c">sh-5.1$</text><text x="8.016" y="1.67" class="c">mdt</text><text x="12.024" y="1.67" class="c">csv</text><text x="16.032" y="1.67" class="c">&lt;</text><text x="18.036" y="1.67" class="c">food.md</text></symbol><symbol id="19"><text y="1.67" class="c">id,name,servings</text></symbol><symbol id="20"><text y="1.67" class="c">1,oatmeal,2</text></symbol><symbol id="21"><text y="1.67" class="c">2,milk,6</text></symbol><symbol id="22"><text y="1.67" class="c">sh-5.1$</text><text x="8.016" y="1.67" class="c">mdt</text><text x="12.024" y="1.67" class="c">--no-header</text></symbol><symbol id="23"><text y="1.67" class="c">sh-5.1$</text><text x="8.016" y="1.67" class="c">mdt</text><text x="12.024" y="1.67" class="c">--no-header</text><text x="24.048" y="1.67" class="c">csv</text></symbol><symbol id="24"><text y="1.67" class="c">sh-5.1$</text><text x="8.016" y="1.67" class="c">mdt</text><text x="12.024" y="1.67" class="c">--no-header</text><text x="24.048" y="1.67" class="c">csv</text><text x="28.056" y="1.67" class="c">&lt;</text></symbol><symbol id="25"><text y="1.67" class="c">sh-5.1$</text><text x="8.016" y="1.67" class="c">mdt</text><text x="12.024" y="1.67" class="c">--no-header</text><text x="24.048" y="1.67" class="c">csv</text><text x="28.056" y="1.67" class="c">&lt;</text><text x="30.06" y="1.67" class="c">food.md</text></symbol><symbol id="26"><text y="1.67" class="c">---,-------,--------</text></symbol><symbol id="a"><path fill="transparent" d="M0 0h50v11H0z"/></symbol><symbol id="b"><path fill="#6f7683" d="M0 0h1.102v2.171H0z"/></symbol></defs><path class="a" d="M0 0h50v21.71H0z"/><g style="animation-duration:14.933334s;animation-iteration-count:infinite;animation-name:f;animation-timing-function:steps(1,end)"><svg width="3750"><svg><use xlink:href="#a"/><use xlink:href="#b" x="-.004"/></svg><svg x="50"><use xlink:href="#a"/><use xlink:href="#b" x="7.996"/><use xlink:href="#1"/></svg><svg x="100"><use xlink:href="#a"/><use xlink:href="#b" x="8.996"/><use xlink:href="#2"/></svg><svg x="150"><use xlink:href="#a"/><use xlink:href="#b" x="9.996"/><text y="1.67" class="c">sh-5.1$</text><text x="8.016" y="1.67" class="c">ca</text></svg><svg x="200"><use xlink:href="#a"/><use xlink:href="#b" x="10.996"/><use xlink:href="#3"/></svg><svg x="250"><use xlink:href="#a"/><use xlink:href="#b" x="11.996"/><use xlink:href="#3"/></svg><svg x="300"><use xlink:href="#a"/><use xlink:href="#b" x="12.996"/><text y="1.67" class="c">sh-5.1$</text><text x="8.016" y="1.67" class="c">cat</text><text x="12.024" y="1.67" class="c">f</text></svg><svg x="350"><use xlink:href="#a"/><use xlink:href="#b" x="13.996"/><text y="1.67" class="c">sh-5.1$</text><text x="8.016" y="1.67" class="c">cat</text><text x="12.024" y="1.67" class="c">fo</text></svg><svg x="400"><use xlink:href="#a"/><use xlink:href="#b" x="19.996"/><use xlink:href="#4"/></svg><svg x="450"><use xlink:href="#a"/><use xlink:href="#b" x="-.004" y="2.146"/><use xlink:href="#4"/></svg><svg x="500"><use xlink:href="#a"/><use xlink:href="#b" x="-.004" y="10.83"/><use xlink:href="#4"/><use xlink:href="#5" y="2.171"/><use xlink:href="#6" y="4.342"/><use xlink:href="#7" y="6.513"/><use xlink:href="#8" y="8.684"/></svg><svg x="550"><use xlink:href="#a"/><use xlink:href="#b" x="-.004" y="10.83"/><use xlink:href="#4"/><use xlink:href="#5" y="2.171"/><use xlink:href="#6" y="4.342"/><use xlink:href="#7" y="6.513"/><use xlink:href="#8" y="8.684"/></svg><svg x="600"><use xlink:href="#a"/><use xlink:href="#b" x="7.996" y="10.83"/><use xlink:href="#4"/><use xlink:href="#5" y="2.171"/><use xlink:href="#6" y="4.342"/><use xlink:href="#7" y="6.513"/><use xlink:href="#8" y="8.684"/><use xlink:href="#1" y="10.855"/></svg><svg x="650"><use xlink:href="#a"/><use xlink:href="#b" x="8.996" y="10.83"/><use xlink:href="#4"/><use xlink:href="#5" y="2.171"/><use xlink:href="#6" y="4.342"/><use xlink:href="#7" y="6.513"/><use xlink:href="#8" y="8.684"/><use xlink:href="#2" y="10.855"/></svg><svg x="700"><use xlink:href="#a"/><use xlink:href="#b" x="9.996" y="10.83"/><use xlink:href="#4"/><use xlink:href="#5" y="2.171"/><use xlink:href="#6" y="4.342"/><use xlink:href="#7" y="6.513"/><use xlink:href="#8" y="8.684"/><use xlink:href="#9" y="10.855"/></svg><svg x="750"><use xlink:href="#a"/><use xlink:href="#b" x="10.996" y="10.83"/><use xlink:href="#4"/><use xlink:href="#5" y="2.171"/><use xlink:href="#6" y="4.342"/><use xlink:href="#7" y="6.513"/><use xlink:href="#8" y="8.684"/><use xlink:href="#10" y="10.855"/></svg><svg x="800"><use xlink:href="#a"/><use xlink:href="#b" x="11.996" y="10.83"/><use xlink:href="#4"/><use xlink:href="#5" y="2.171"/><use xlink:href="#6" y="4.342"/><use xlink:href="#7" y="6.513"/><use xlink:href="#8" y="8.684"/><use xlink:href="#11" y="10.855"/></svg><svg x="850"><use xlink:href="#a"/><use xlink:href="#b" x="12.996" y="10.83"/><use xlink:href="#4"/><use xlink:href="#5" y="2.171"/><use xlink:href="#6" y="4.342"/><use xlink:href="#7" y="6.513"/><use xlink:href="#8" y="8.684"/><use xlink:href="#12" y="10.855"/></svg><svg x="900"><use xlink:href="#a"/><use xlink:href="#b" x="-.004" y="13.001"/><use xlink:href="#4"/><use xlink:href="#5" y="2.171"/><use xlink:href="#6" y="4.342"/><use xlink:href="#7" y="6.513"/><use xlink:href="#8" y="8.684"/><use xlink:href="#12" y="10.855"/></svg><svg x="950"><use xlink:href="#a"/><use xlink:href="#b" x="-.004"/></svg><svg x="1000"><use xlink:href="#a"/><use xlink:href="#b" x="7.996"/><use xlink:href="#1"/></svg><svg x="1050"><use xlink:href="#a"/><use xlink:href="#b" x="8.996"/><use xlink:href="#13"/></svg><svg x="1100"><use xlink:href="#a"/><use xlink:href="#b" x="9.996"/><use xlink:href="#14"/></svg><svg x="1150"><use xlink:href="#a"/><use xlink:href="#b" x="10.996"/><use xlink:href="#15"/></svg><svg x="1200"><use xlink:href="#a"/><use xlink:href="#b" x="11.996"/><use xlink:href="#15"/></svg><svg x="1250"><use xlink:href="#a"/><use xlink:href="#b" x="12.996"/><text y="1.67" class="c">sh-5.1$</text><text x="8.016" y="1.67" class="c">mdt</text><text x="12.024" y="1.67" class="c">c</text></svg><svg x="1300"><use xlink:href="#a"/><use xlink:href="#b" x="13.996"/><text y="1.67" class="c">sh-5.1$</text><text x="8.016" y="1.67" class="c">mdt</text><text x="12.024" y="1.67" class="c">cs</text></svg><svg x="1350"><use xlink:href="#a"/><use xlink:href="#b" x="14.996"/><use xlink:href="#16"/></svg><svg x="1400"><use xlink:href="#a"/><use xlink:href="#b" x="15.996"/><use xlink:href="#16"/></svg><svg x="1450"><use xlink:href="#a"/><use xlink:href="#b" x="16.996"/><use xlink:href="#17"/></svg><svg x="1500"><use xlink:href="#a"/><use xlink:href="#b" x="17.996"/><use xlink:href="#17"/></svg><svg x="1550"><use xlink:href="#a"/><use xlink:href="#b" x="18.996"/><text y="1.67" class="c">sh-5.1$</text><text x="8.016" y="1.67" class="c">mdt</text><text x="12.024" y="1.67" class="c">csv</text><text x="16.032" y="1.67" class="c">&lt;</text><text x="18.036" y="1.67" class="c">f</text></svg><svg x="1600"><use xlink:href="#a"/><use xlink:href="#b" x="19.996"/><text y="1.67" class="c">sh-5.1$</text><text x="8.016" y="1.67" class="c">mdt</text><text x="12.024" y="1.67" class="c">csv</text><text x="16.032" y="1.67" class="c">&lt;</text><text x="18.036" y="1.67" class="c">fo</text></svg><svg x="1650"><use xlink:href="#a"/><use xlink:href="#b" x="25.996"/><use xlink:href="#18"/></svg><svg x="1700"><use xlink:href="#a"/><use xlink:href="#b" x="-.004" y="2.146"/><use xlink:href="#18"/></svg><svg x="1750"><use xlink:href="#a"/><use xlink:href="#b" x="-.004" y="8.659"/><use xlink:href="#18"/><use xlink:href="#19" y="2.171"/><use xlink:href="#20" y="4.342"/><use xlink:href="#21" y="6.513"/></svg><svg x="1800"><use xlink:href="#a"/><use xlink:href="#b" x="7.996" y="8.659"/><use xlink:href="#18"/><use xlink:href="#19" y="2.171"/><use xlink:href="#20" y="4.342"/><use xlink:href="#21" y="6.513"/><use xlink:href="#1" y="8.684"/></svg><svg x="1850"><use xlink:href="#a"/><use xlink:href="#b" x="8.996" y="8.659"/><use xlink:href="#18"/><use xlink:href="#19" y="2.171"/><use xlink:href="#20" y="4.342"/><use xlink:href="#21" y="6.513"/><use xlink:href="#2" y="8.684"/></svg><svg x="1900"><use xlink:href="#a"/><use xlink:href="#b" x="9.996" y="8.659"/><use xlink:href="#18"/><use xlink:href="#19" y="2.171"/><use xlink:href="#20" y="4.342"/><use xlink:href="#21" y="6.513"/><use xlink:href="#9" y="8.684"/></svg><svg x="1950"><use xlink:href="#a"/><use xlink:href="#b" x="10.996" y="8.659"/><use xlink:href="#18"/><use xlink:href="#19" y="2.171"/><use xlink:href="#20" y="4.342"/><use xlink:href="#21" y="6.513"/><use xlink:href="#10" y="8.684"/></svg><svg x="2000"><use xlink:href="#a"/><use xlink:href="#b" x="11.996" y="8.659"/><use xlink:href="#18"/><use xlink:href="#19" y="2.171"/><use xlink:href="#20" y="4.342"/><use xlink:href="#21" y="6.513"/><use xlink:href="#11" y="8.684"/></svg><svg x="2050"><use xlink:href="#a"/><use xlink:href="#b" x="12.996" y="8.659"/><use xlink:href="#18"/><use xlink:href="#19" y="2.171"/><use xlink:href="#20" y="4.342"/><use xlink:href="#21" y="6.513"/><use xlink:href="#12" y="8.684"/></svg><svg x="2100"><use xlink:href="#a"/><use xlink:href="#b" x="-.004" y="10.83"/><use xlink:href="#18"/><use xlink:href="#19" y="2.171"/><use xlink:href="#20" y="4.342"/><use xlink:href="#21" y="6.513"/><use xlink:href="#12" y="8.684"/></svg><svg x="2150"><use xlink:href="#a"/><use xlink:href="#b" x="-.004"/></svg><svg x="2200"><use xlink:href="#a"/><use xlink:href="#b" x="-.004"/></svg><svg x="2250"><use xlink:href="#a"/><use xlink:href="#b" x="7.996"/><use xlink:href="#1"/></svg><svg x="2300"><use xlink:href="#a"/><use xlink:href="#b" x="8.996"/><use xlink:href="#13"/></svg><svg x="2350"><use xlink:href="#a"/><use xlink:href="#b" x="9.996"/><use xlink:href="#14"/></svg><svg x="2400"><use xlink:href="#a"/><use xlink:href="#b" x="10.996"/><use xlink:href="#15"/></svg><svg x="2450"><use xlink:href="#a"/><use xlink:href="#b" x="11.996"/><use xlink:href="#15"/></svg><svg x="2500"><use xlink:href="#a"/><use xlink:href="#b" x="12.996"/><text y="1.67" class="c">sh-5.1$</text><text x="8.016" y="1.67" class="c">mdt</text><text x="12.024" y="1.67" class="c">-</text></svg><svg x="2550"><use xlink:href="#a"/><use xlink:href="#b" x="13.996"/><text y="1.67" class="c">sh-5.1$</text><text x="8.016" y="1.67" class="c">mdt</text><text x="12.024" y="1.67" class="c">--</text></svg><svg x="2600"><use xlink:href="#a"/><use xlink:href="#b" x="14.996"/><text y="1.67" class="c">sh-5.1$</text><text x="8.016" y="1.67" class="c">mdt</text><text x="12.024" y="1.67" class="c">--n</text></svg><svg x="2650"><use xlink:href="#a"/><use xlink:href="#b" x="15.996"/><text y="1.67" class="c">sh-5.1$</text><text x="8.016" y="1.67" class="c">mdt</text><text x="12.024" y="1.67" class="c">--no</text></svg><svg x="2700"><use xlink:href="#a"/><use xlink:href="#b" x="16.996"/><text y="1.67" class="c">sh-5.1$</text><text x="8.016" y="1.67" class="c">mdt</text><text x="12.024" y="1.67" class="c">--no-</text></svg><svg x="2750"><use xlink:href="#a"/><use xlink:href="#b" x="17.996"/><text y="1.67" class="c">sh-5.1$</text><text x="8.016" y="1.67" class="c">mdt</text><text x="12.024" y="1.67" class="c">--no-h</text></svg><svg x="2800"><use xlink:href="#a"/><use xlink:href="#b" x="18.996"/><text y="1.67" class="c">sh-5.1$</text><text x="8.016" y="1.67" class="c">mdt</text><text x="12.024" y="1.67" class="c">--no-he</text></svg><svg x="2850"><use xlink:href="#a"/><use xlink:href="#b" x="19.996"/><text y="1.67" class="c">sh-5.1$</text><text x="8.016" y="1.67" class="c">mdt</text><text x="12.024" y="1.67" class="c">--no-hea</text></svg><svg x="2900"><use xlink:href="#a"/><use xlink:href="#b" x="20.996"/><text y="1.67" class="c">sh-5.1$</text><text x="8.016" y="1.67" class="c">mdt</text><text x="12.024" y="1.67" class="c">--no-head</text></svg><svg x="2950"><use xlink:href="#a"/><use xlink:href="#b" x="21.996"/><text y="1.67" class="c">sh-5.1$</text><text x="8.016" y="1.67" class="c">mdt</text><text x="12.024" y="1.67" class="c">--no-heade</text></svg><svg x="3000"><use xlink:href="#a"/><use xlink:href="#b" x="22.996"/><use xlink:href="#22"/></svg><svg x="3050"><use xlink:href="#a"/><use xlink:href="#b" x="23.996"/><use xlink:href="#22"/></svg><svg x="3100"><use xlink:href="#a"/><use xlink:href="#b" x="24.996"/><text y="1.67" class="c">sh-5.1$</text><text x="8.016" y="1.67" class="c">mdt</text><text x="12.024" y="1.67" class="c">--no-header</text><text x="24.048" y="1.67" class="c">c</text></svg><svg x="3150"><use xlink:href="#a"/><use xlink:href="#b" x="25.996"/><text y="1.67" class="c">sh-5.1$</text><text x="8.016" y="1.67" class="c">mdt</text><text x="12.024" y="1.67" class="c">--no-header</text><text x="24.048" y="1.67" class="c">cs</text></svg><svg x="3200"><use xlink:href="#a"/><use xlink:href="#b" x="26.996"/><use xlink:href="#23"/></svg><svg x="3250"><use xlink:href="#a"/><use xlink:href="#b" x="27.996"/><use xlink:href="#23"/></svg><svg x="3300"><use xlink:href="#a"/><use xlink:href="#b" x="28.996"/><use xlink:href="#24"/></svg><svg x="3350"><use xlink:href="#a"/><use xlink:href="#b" x="29.996"/><use xlink:href="#24"/></svg><svg x="3400"><use xlink:href="#a"/><use xlink:href="#b" x="30.996"/><text y="1.67" class="c">sh-5.1$</text><text x="8.016" y="1.67" class="c">mdt</text><text x="12.024" y="1.67" class="c">--no-header</text><text x="24.048" y="1.67" class="c">csv</text><text x="28.056" y="1.67" class="c">&lt;</text><text x="30.06" y="1.67" class="c">f</text></svg><svg x="3450"><use xlink:href="#a"/><use xlink:href="#b" x="31.996"/><text y="1.67" class="c">sh-5.1$</text><text x="8.016" y="1.67" class="c">mdt</text><text x="12.024" y="1.67" class="c">--no-header</text><text x="24.048" y="1.67" class="c">csv</text><text x="28.056" y="1.67" class="c">&lt;</text><text x="30.06" y="1.67" class="c">fo</text></svg><svg x="3500"><use xlink:href="#a"/><use xlink:href="#b" x="37.996"/><use xlink:href="#25"/></svg><svg x="3550"><use xlink:href="#a"/><use xlink:href="#b" x="-.004" y="2.146"/><use xlink:href="#25"/></svg><svg x="3600"><use xlink:href="#a"/><use xlink:href="#b" x="-.004" y="10.83"/><use xlink:href="#25"/><use xlink:href="#19" y="2.171"/><use xlink:href="#26" y="4.342"/><use xlink:href="#20" y="6.513"/><use xlink:href="#21" y="8.684"/></svg><svg x="3650"><use xlink:href="#a"/><use xlink:href="#b" x="7.996" y="10.83"/><use xlink:href="#25"/><use xlink:href="#19" y="2.171"/><use xlink:href="#26" y="4.342"/><use xlink:href="#20" y="6.513"/><use xlink:href="#21" y="8.684"/><use xlink:href="#1" y="10.855"/></svg><svg x="3700"><use xlink:href="#a"/><use xlink:href="#b" x="-.004" y="15.172"/><use xlink:href="#25"/><use xlink:href="#19" y="2.171"/><use xlink:href="#26" y="4.342"/><use xlink:href="#20" y="6.513"/><use xlink:href="#21" y="8.684"/><use xlink:href="#1" y="10.855"/><text y="14.696" class="c">exit</text></svg></svg></g></g></svg></svg>